<svg width="120" height="120" viewBox="0 0 120 120" fill="none" xmlns="http://www.w3.org/2000/svg">
<path d="M71.15 60.0123C71.15 62.9412 69.9728 65.7502 67.8772 67.8217C65.7816 69.8933 62.9393 71.0577 59.975 71.059C57.0099 71.059 54.1662 69.8951 52.0695 67.8235C49.9729 65.7518 48.795 62.9421 48.795 60.0123C48.795 57.0835 49.9722 54.2745 52.0678 52.203C54.1634 50.1314 57.0057 48.967 59.97 48.9657C62.9351 48.9657 65.7788 50.1296 67.8755 52.2012C69.9721 54.2728 71.15 57.0826 71.15 60.0123V60.0123ZM84.39 7.2C77.66 7.2 68.855 11.9427 59.95 20.1536C51.05 11.9872 42.24 7.2988 35.515 7.2988C33.465 7.2988 31.6 7.75826 29.985 8.67222C23.11 12.5899 21.57 24.7975 25.12 40.1176C9.9 44.7615 0 52.1868 0 60.0123C0 67.8675 9.95 75.3126 25.215 79.922C21.695 95.3013 23.265 107.529 30.155 111.441C31.755 112.365 33.605 112.8 35.665 112.8C42.39 112.8 51.2 108.057 60.105 99.8365C69.005 108.008 77.815 112.696 84.54 112.696C86.59 112.696 88.455 112.252 90.07 111.338C96.94 107.425 98.485 95.2173 94.935 79.8923C110.1 75.2879 120 67.8477 120 60.0123C120 52.1572 110.05 44.7121 94.785 40.0929C98.305 24.7284 96.735 12.4911 89.845 8.57341C88.255 7.66439 86.405 7.20494 84.385 7.2H84.39ZM84.365 12.585V12.6146C85.49 12.6146 86.395 12.832 87.155 13.242C90.485 15.1293 91.93 22.3076 90.805 31.5411C90.535 33.8137 90.095 36.2097 89.555 38.6552C84.755 37.4893 79.525 36.5951 74.02 36.0171C70.72 31.546 67.295 27.4851 63.845 23.928C71.805 16.6163 79.28 12.6047 84.37 12.5899L84.365 12.585ZM35.515 12.6838C40.575 12.6838 48.085 16.6756 56.065 23.9478C52.635 27.5048 49.215 31.5411 45.965 36.0121C40.43 36.5901 35.195 37.4843 30.4 38.67C29.84 36.2493 29.425 33.9075 29.13 31.6547C27.98 22.4262 29.4 15.2528 32.7 13.3409C33.65 12.8962 34.7 12.7134 35.515 12.6887V12.6838ZM59.925 27.7519C62.2 30.0639 64.475 32.6527 66.725 35.4786C64.525 35.3798 62.275 35.3106 60 35.3106C57.7 35.3106 55.425 35.36 53.2 35.4786C55.4 32.6527 57.675 30.0639 59.925 27.7469V27.7519ZM60 40.7252C63.7 40.7252 67.385 40.8932 71.01 41.1847C73.04 44.06 75.02 47.1279 76.925 50.3737C78.785 53.5356 80.475 56.7468 82.015 59.9876C80.475 63.2236 78.785 66.4595 76.95 69.6213C75.05 72.882 73.085 75.9845 71.05 78.8598C67.41 79.171 63.72 79.3439 60 79.3439C56.3 79.3439 52.615 79.171 48.99 78.8845C46.96 76.0092 44.98 72.9363 43.075 69.6954C41.215 66.5336 39.525 63.3224 37.985 60.0815C39.5 56.8357 41.215 53.5948 43.05 50.4281C44.95 47.1674 46.915 44.0748 48.95 41.1995C52.59 40.8833 56.28 40.7153 60 40.7153V40.7252ZM41.825 41.9801C40.625 43.8426 39.425 45.7496 38.305 47.7109C37.18 49.6376 36.13 51.5742 35.13 53.5108C33.805 50.27 32.68 47.039 31.75 43.892C34.95 43.1509 38.325 42.4939 41.825 41.985V41.9801ZM78.125 41.9801C81.6 42.4889 84.95 43.1163 88.155 43.892C87.255 47.0143 86.13 50.2255 84.855 53.4417C83.855 51.5149 82.805 49.5734 81.655 47.6417C80.53 45.7051 79.33 43.8179 78.13 41.9801H78.125ZM93.44 45.3148C95.86 46.0559 98.16 46.8809 100.315 47.7751C108.975 51.431 114.575 56.2132 114.575 60.0074C114.55 63.8016 108.95 68.6036 100.29 72.2348C98.19 73.124 95.89 73.9244 93.515 74.6704C92.115 69.9375 90.285 65.007 88.015 59.9481C90.265 54.9238 92.065 50.018 93.44 45.3049V45.3148ZM26.465 45.3346C27.855 50.0773 29.69 55.0028 31.965 60.0568C29.715 65.0811 27.905 69.9869 26.535 74.7C24.115 73.959 21.815 73.129 19.685 72.2298C11.025 68.5888 5.425 63.8016 5.425 60.0074C5.425 56.2132 11.025 51.4013 19.685 47.7751C21.785 46.8858 24.085 46.0855 26.465 45.3346V45.3346ZM84.855 66.4793C86.18 69.7251 87.305 72.961 88.235 76.1031C85.035 76.8787 81.655 77.5358 78.155 78.0298C79.355 76.1772 80.555 74.2653 81.68 72.3089C82.805 70.3821 83.855 68.4159 84.86 66.4793H84.855ZM35.13 66.5781C36.13 68.5147 37.18 70.4464 38.33 72.383C39.48 74.3097 40.655 76.1969 41.855 78.0298C38.38 77.5259 35.03 76.8935 31.825 76.1228C32.725 73.0104 33.855 69.7893 35.125 66.5731L35.13 66.5781ZM89.6 81.3349C90.16 83.7705 90.6 86.1172 90.87 88.365C92.02 97.5936 90.6 104.767 87.3 106.684C86.565 107.128 85.61 107.316 84.485 107.316C79.425 107.316 71.915 103.329 63.935 96.0522C67.365 92.4952 70.785 88.4638 74.035 83.9977C79.57 83.4148 84.805 82.5156 89.6 81.33V81.3349ZM30.45 81.3843C35.25 82.5403 40.48 83.4346 45.985 84.0126C49.285 88.4836 52.71 92.5446 56.16 96.0967C48.185 103.423 40.7 107.435 35.61 107.435C34.51 107.41 33.58 107.188 32.845 106.783C29.515 104.905 28.07 97.7221 29.195 88.4885C29.465 86.216 29.905 83.8248 30.445 81.3843H30.45ZM53.25 84.5461C55.45 84.6449 57.7 84.7141 59.975 84.7141C62.275 84.7141 64.55 84.6647 66.775 84.5461C64.575 87.372 62.3 89.9558 60.05 92.2778C57.775 89.9558 55.5 87.372 53.25 84.5461Z" fill="#111111"/>
</svg>
